<svg width="42" height="37" viewBox="0 0 42 37" fill="none" xmlns="http://www.w3.org/2000/svg">
<path d="M27.2291 7.10164V18.8874C27.2267 19.0797 27.2953 19.2661 27.4217 19.4109C27.5481 19.5558 27.7234 19.6489 27.9142 19.6725C27.9395 19.6742 27.9648 19.6759 27.9901 19.6759C28.1787 19.6761 28.3605 19.6056 28.4997 19.4783C28.5776 19.4068 28.6399 19.32 28.6826 19.2232C28.7252 19.1265 28.7474 19.0219 28.7477 18.9161V7.01385L27.2291 7.10164Z" fill="#7484EC"/>
<path d="M12.3533 7.10164V18.8874C12.351 19.0797 12.4195 19.2661 12.5459 19.4109C12.6723 19.5558 12.8477 19.6489 13.0384 19.6725C13.0637 19.6742 13.089 19.6759 13.1144 19.6759C13.3029 19.6761 13.4848 19.6056 13.624 19.4783C13.7019 19.4068 13.7641 19.32 13.8068 19.2232C13.8495 19.1265 13.8717 19.0219 13.872 18.9161V7.01385L12.3533 7.10164Z" fill="#7484EC"/>
<path d="M33.8893 19.1209C33.8877 18.8537 33.7916 18.5958 33.6179 18.3928C33.4442 18.1899 33.2042 18.0551 32.9406 18.0125L32.0585 17.8676L30.5396 17.6182L28.748 17.3245L27.2291 17.0738L16.7548 15.3531C16.5997 15.328 16.4412 15.3351 16.289 15.374L13.8723 16.0007L12.8962 16.2527L12.4983 16.3558H12.497L12.4956 16.3571L12.3534 16.3937L10.9141 16.7657L10.4587 16.8832L10.3191 16.9185L8.94114 17.2749L6.30135 17.959C6.12505 18.0046 5.96249 18.0924 5.82769 18.2149V18.2175C5.70995 18.3227 5.61582 18.4517 5.55149 18.5959C5.48717 18.7402 5.4541 18.8964 5.45448 19.0543V32.3277C5.45408 32.422 5.46637 32.516 5.49102 32.6071C5.54406 32.8109 5.65249 32.9959 5.80428 33.1418C5.95607 33.2877 6.14529 33.3886 6.35094 33.4335L21.3454 36.6255L22.8369 36.9427C22.8999 36.9566 22.9642 36.9641 23.0287 36.9649C23.0434 36.9671 23.0582 36.968 23.0731 36.9676C23.1233 36.9673 23.1734 36.9638 23.2231 36.9571L23.2244 36.9558C23.2887 36.9483 23.3521 36.9343 23.4136 36.914L28.748 35.2286L33.2081 33.8199C33.4393 33.7479 33.6412 33.6032 33.7836 33.4073C33.9261 33.2113 34.0016 32.9747 33.9989 32.7324L33.8893 19.1209Z" fill="white"/>
<path d="M32.8988 19.1272C32.8987 19.0939 32.8867 19.0617 32.8649 19.0365C32.8431 19.0114 32.813 18.9949 32.7801 18.9901L32.6692 18.9718L32.0585 18.8713L31.9984 18.8608H31.9971L31.9945 18.8595L30.5396 18.6219L28.748 18.3269L27.2291 18.0775L16.5943 16.3294C16.5864 16.3294 16.5799 16.3281 16.5708 16.3281C16.5592 16.3278 16.5477 16.3296 16.5368 16.3333L15.6573 16.5605L14.7296 16.8007L13.8723 17.0226L12.3534 17.4156L12.2137 17.4522H12.2124L10.4587 17.9065L8.9411 18.2981L7.94024 18.5579L7.28911 18.7264L7.2865 18.7277L6.54924 18.917C6.51895 18.9247 6.49216 18.9425 6.47322 18.9673C6.45427 18.9922 6.44427 19.0228 6.44485 19.054V32.3274C6.44496 32.3595 6.45602 32.3905 6.47619 32.4155C6.49636 32.4404 6.52443 32.4577 6.55576 32.4645L7.22386 32.6068L21.622 35.6722L22.9712 35.9594H22.9725L23.043 35.9737C23.0667 35.9794 23.0915 35.9785 23.1148 35.9711L23.2544 35.9268L27.1965 34.6813H27.1978L28.7127 34.2034L32.9106 32.8757C32.9393 32.8669 32.9645 32.8491 32.9824 32.8249C33.0002 32.8007 33.0098 32.7713 33.0097 32.7413L32.8988 19.1272Z" fill="#3F3D56"/>
<path d="M33.8893 19.1209C33.8877 18.8537 33.7916 18.5958 33.6179 18.3928C33.4442 18.1899 33.2042 18.0551 32.9406 18.0125L32.0585 17.8676L30.5396 17.6182L28.748 17.3245L27.2291 17.0738L16.7548 15.3531C16.5997 15.328 16.4412 15.3351 16.289 15.374L13.8723 16.0007L12.8962 16.2527L12.4983 16.3558H12.497L12.4956 16.3571L12.3534 16.3937L10.9141 16.7657L10.4587 16.8832L10.3191 16.9185L8.94114 17.2749L6.30135 17.959C6.12505 18.0046 5.96249 18.0924 5.82769 18.2149V18.2175C5.70995 18.3227 5.61582 18.4517 5.55149 18.5959C5.48717 18.7402 5.4541 18.8964 5.45448 19.0543V32.3277C5.45408 32.422 5.46637 32.516 5.49102 32.6071C5.54406 32.8109 5.65249 32.9959 5.80428 33.1418C5.95607 33.2877 6.14529 33.3886 6.35094 33.4335L21.3454 36.6255L22.8369 36.9427C22.8999 36.9566 22.9642 36.9641 23.0287 36.9649C23.0434 36.9671 23.0582 36.968 23.0731 36.9676C23.1233 36.9673 23.1734 36.9638 23.2231 36.9571L23.2244 36.9558C23.2887 36.9483 23.3521 36.9343 23.4136 36.914L28.748 35.2286L33.2081 33.8199C33.4393 33.7479 33.6412 33.6032 33.7836 33.4073C33.9261 33.2113 34.0016 32.9747 33.9989 32.7324L33.8893 19.1209ZM33.1233 33.551L28.7141 34.944L27.2278 35.414L23.3275 36.6464C23.3053 36.6529 23.2831 36.6581 23.2623 36.6634C23.1693 36.6833 23.0738 36.6891 22.9791 36.6803H22.9778C22.9517 36.6764 22.9243 36.6712 22.8969 36.666L21.4224 36.3526L6.40835 33.1567C6.2662 33.1258 6.13429 33.0591 6.02513 32.9629C5.91597 32.8668 5.83318 32.7443 5.78462 32.6071C5.75383 32.5171 5.73796 32.4228 5.73764 32.3277V19.0543C5.73734 18.8441 5.81499 18.6413 5.95556 18.4851H5.95686V18.4838C6.04907 18.3823 6.16462 18.3047 6.29352 18.258C6.31893 18.2473 6.3451 18.2386 6.37182 18.2318L8.94114 17.5686L10.4587 17.1757L10.6179 17.1326H10.6218L12.3534 16.6861L13.135 16.4837L13.7692 16.3192L13.8723 16.2931L16.3581 15.6495C16.4276 15.6315 16.499 15.6223 16.5708 15.6221C16.6171 15.6223 16.6633 15.6258 16.7091 15.6325L27.2291 17.3611L28.748 17.6104L30.5396 17.9042L32.0585 18.1548L32.8949 18.2919C33.0562 18.3178 33.2064 18.3904 33.3269 18.5008H33.3295C33.4156 18.5799 33.4846 18.6759 33.5322 18.7828C33.5798 18.8897 33.6049 19.0052 33.6061 19.1222L33.7157 32.735C33.7179 32.9167 33.6614 33.0942 33.5547 33.2412C33.448 33.3882 33.2967 33.4969 33.1233 33.551Z" fill="#3F3D56"/>
<path d="M33.5116 18.7378C33.5006 18.745 33.4885 18.7504 33.4758 18.7538L28.7147 20.0416L27.2325 20.4422L23.017 21.5819C23.0049 21.5849 22.9926 21.5865 22.9802 21.5866C22.9717 21.5865 22.9632 21.5859 22.9548 21.5848L5.95682 18.4842L5.90028 18.4738C5.86342 18.4669 5.8308 18.4457 5.80954 18.4148C5.78828 18.3839 5.78012 18.3459 5.78685 18.309C5.79358 18.2721 5.81465 18.2393 5.84544 18.2179C5.87624 18.1965 5.91425 18.1882 5.95116 18.1948L6.29319 18.257L22.9746 21.3001L26.6078 20.3178L28.6402 19.7682L33.3279 18.5002L33.4023 18.4804C33.4345 18.472 33.4686 18.475 33.4987 18.4892C33.5289 18.5033 33.5531 18.5276 33.5672 18.5577C33.5708 18.5649 33.5737 18.5725 33.5757 18.5804C33.5834 18.61 33.5814 18.6414 33.5698 18.6698C33.5583 18.6981 33.5378 18.722 33.5116 18.7378Z" fill="#3F3D56"/>
<path d="M23.1217 37.0001C23.0844 37.0001 23.0486 36.9854 23.0222 36.9591C22.9957 36.9329 22.9807 36.8973 22.9803 36.86L22.839 21.4468C22.8387 21.4093 22.8532 21.3732 22.8795 21.3464C22.9057 21.3197 22.9416 21.3044 22.979 21.3041H22.9803C23.0176 21.3041 23.0533 21.3188 23.0798 21.345C23.1063 21.3713 23.1213 21.4069 23.1217 21.4442L23.263 36.8574C23.2633 36.8949 23.2488 36.931 23.2225 36.9577C23.1962 36.9845 23.1604 36.9997 23.1229 37.0001H23.1217Z" fill="#3F3D56"/>
<path d="M28.7147 35.1249L27.2326 35.5256L26.6079 20.3179L10.6681 17.1447C10.6524 17.142 10.637 17.1382 10.6219 17.1334C10.4994 17.0986 10.3925 17.0231 10.3185 16.9194L12.495 16.3557L13.1348 16.483L28.2596 19.493C28.3392 19.5087 28.4143 19.5415 28.4801 19.589C28.5458 19.6365 28.6004 19.6977 28.6403 19.7683C28.6874 19.8503 28.7138 35.0269 28.7147 35.1249Z" fill="#7484EC"/>
<path d="M36.7208 4.05747C36.4611 3.98827 36.1988 3.92169 35.9391 3.85641V2.67099C35.9413 2.24455 35.7802 1.83347 35.489 1.52212C35.3617 1.38358 35.2105 1.26904 35.0427 1.18399C35.0051 1.1638 34.9663 1.14593 34.9266 1.13046C34.7726 1.06636 34.6089 1.02841 34.4425 1.01818C34.2646 1.00573 34.0859 1.02339 33.914 1.0704C33.8109 1.09853 33.7109 1.13657 33.6152 1.18398C33.478 1.25419 33.3515 1.34341 33.2393 1.44901C33.2146 1.4725 33.1911 1.496 33.1663 1.52211C32.8881 1.81945 32.7332 2.21147 32.733 2.61876V3.13184C24.6576 1.51037 16.3406 1.51037 8.26513 3.13184V2.67098C8.26728 2.24455 8.10619 1.83346 7.81494 1.52211C7.6881 1.3836 7.53738 1.26906 7.36998 1.18398C7.33182 1.16404 7.29261 1.14617 7.25253 1.13045C7.09853 1.06635 6.93491 1.0284 6.76843 1.01817C6.59058 1.00579 6.41193 1.02345 6.23995 1.07039C6.13734 1.09853 6.03769 1.13657 5.94243 1.18398C5.80472 1.25384 5.67772 1.34309 5.56532 1.449C5.54053 1.4725 5.51704 1.496 5.49355 1.52211C5.21496 1.81931 5.05964 2.21131 5.05902 2.61876V3.8564C4.79935 3.92168 4.53837 3.98826 4.2787 4.05745L4.21607 4.07443V4.1384C4.2154 4.67179 4.33259 5.19874 4.55925 5.68154L4.7315 6.00009C5.0531 6.5389 5.50891 6.98502 6.0544 7.29486C6.59989 7.60469 7.21639 7.76764 7.84365 7.76778H8.94106V19.6416C8.93858 19.8338 9.00713 20.0202 9.13356 20.165C9.25998 20.3098 9.43538 20.4028 9.62612 20.4262C9.73166 20.4369 9.83828 20.4252 9.939 20.3919C10.0397 20.3586 10.1323 20.3045 10.2107 20.233C10.2888 20.1615 10.3511 20.0746 10.3938 19.9777C10.4365 19.8809 10.4586 19.7762 10.4586 19.6703V7.85657C10.7937 7.94769 11.1058 8.10851 11.3745 8.32853C11.6432 8.54854 11.8624 8.8228 12.018 9.13338C12.1159 9.32846 12.228 9.51609 12.3533 9.69476C12.7446 10.2488 13.2635 10.7004 13.866 11.0115C14.4686 11.3226 15.1371 11.484 15.8152 11.482H25.1843C25.8976 11.4829 26.6001 11.3071 27.229 10.9703C27.8493 10.6416 28.3729 10.1565 28.7479 9.5629C28.8262 9.43829 28.8972 9.30927 28.9606 9.17646C29.1123 8.85499 29.3321 8.57041 29.6047 8.34248C29.8774 8.11455 30.1964 7.94874 30.5395 7.85657V19.6416C30.5371 19.8339 30.6056 20.0203 30.732 20.1651C30.8584 20.3099 31.0338 20.4029 31.2246 20.4262C31.2497 20.4288 31.275 20.4302 31.3003 20.4302C31.489 20.4303 31.6709 20.36 31.8105 20.233C31.8883 20.1614 31.9505 20.0744 31.9932 19.9776C32.0359 19.8808 32.0581 19.7761 32.0584 19.6703V7.76779H33.1545C33.7818 7.76781 34.3984 7.60493 34.9439 7.29508C35.4894 6.98523 35.9452 6.53902 36.2667 6.0001C36.3295 5.89691 36.3869 5.79059 36.4389 5.68155C36.666 5.19885 36.7836 4.6719 36.7834 4.13841V4.07444L36.7208 4.05747Z" fill="#7484EC"/>
<path d="M20.1619 13.0863C22.3986 13.0863 24.2117 11.2723 24.2117 9.03451C24.2117 6.79674 22.3986 4.98267 20.1619 4.98267C17.9252 4.98267 16.1121 6.79674 16.1121 9.03451C16.1121 11.2723 17.9252 13.0863 20.1619 13.0863Z" fill="#3F3D56"/>
<path d="M20.1619 11.1953C21.3548 11.1953 22.3218 10.2278 22.3218 9.03436C22.3218 7.84089 21.3548 6.87338 20.1619 6.87338C18.969 6.87338 18.002 7.84089 18.002 9.03436C18.002 10.2278 18.969 11.1953 20.1619 11.1953Z" fill="#7484EC"/>
<path d="M40.2427 0.339203H34.9266V1.18388H41.1666C41.1453 0.953322 41.0388 0.739004 40.8679 0.582805C40.6971 0.426605 40.4742 0.339747 40.2427 0.339203Z" fill="#7484EC"/>
<path d="M28.5992 0.339203C28.3677 0.339919 28.1448 0.426801 27.9737 0.582936C27.8027 0.739071 27.6959 0.953286 27.6741 1.18388H33.914V0.339203H28.5992Z" fill="#7484EC"/>
<path d="M35.7486 1.18409C35.6883 0.854592 35.5159 0.556138 35.2606 0.339407C35.0684 0.176759 34.8367 0.067702 34.5889 0.0232329C34.3411 -0.0212362 34.0859 0.000456285 33.8492 0.0861211C33.6124 0.171786 33.4024 0.318394 33.2404 0.511162C33.0783 0.70393 32.9699 0.936041 32.9262 1.18409C32.9099 1.26754 32.9016 1.35234 32.9014 1.43736V1.52222H35.7708V1.43736C35.7701 1.35248 35.7627 1.2678 35.7486 1.18409Z" fill="#3F3D56"/>
<path d="M12.5687 0.339203H7.25256V1.18388H13.4925C13.4712 0.953322 13.3647 0.739006 13.1939 0.582807C13.023 0.426608 12.8001 0.339749 12.5687 0.339203Z" fill="#7484EC"/>
<path d="M0.925168 0.339203C0.693655 0.339921 0.470688 0.426804 0.299676 0.582938C0.128664 0.739073 0.0218411 0.953287 0 1.18388H6.23997V0.339203H0.925168Z" fill="#7484EC"/>
<path d="M8.0746 1.18403C8.01592 0.852229 7.84231 0.551702 7.58425 0.335186C7.32618 0.118671 7.00015 0 6.66336 0C6.32657 0 6.00054 0.118671 5.74248 0.335186C5.48442 0.551702 5.31081 0.852229 5.25213 1.18403C5.23631 1.26753 5.22845 1.35233 5.22864 1.43731V1.52217H8.09678V1.43731C8.09604 1.35243 8.08863 1.26774 8.0746 1.18403Z" fill="#3F3D56"/>
<path d="M4.55994 5.68148C15.1434 4.33086 25.8554 4.33086 36.4389 5.68148C36.3869 5.79065 36.3294 5.89714 36.2668 6.00056C31.0717 5.34209 25.8406 5.00998 20.604 5.00617H20.6006C20.302 5.00617 20.0016 5.00617 19.7029 5.00955H19.6979C14.6939 5.04012 9.69635 5.37105 4.73205 6.00056L4.55994 5.68148Z" fill="#3F3D56"/>
<path d="M14.6513 31.2599C14.6325 31.2599 14.6138 31.2578 14.5955 31.2536L9.36444 30.0719C9.33201 30.0645 9.30134 30.0509 9.27418 30.0317C9.24702 30.0125 9.22389 29.9882 9.20614 29.9601C9.18838 29.932 9.17633 29.9006 9.17068 29.8679C9.16503 29.8351 9.16588 29.8015 9.1732 29.7691C9.18051 29.7366 9.19414 29.7059 9.21331 29.6788C9.23248 29.6516 9.2568 29.6285 9.2849 29.6107C9.31301 29.5929 9.34433 29.5809 9.37709 29.5752C9.40985 29.5696 9.44341 29.5704 9.47583 29.5777L14.7069 30.7595C14.7676 30.7733 14.8211 30.8089 14.8573 30.8596C14.8934 30.9104 14.9096 30.9726 14.9027 31.0346C14.8958 31.0965 14.8664 31.1537 14.82 31.1952C14.7736 31.2368 14.7136 31.2598 14.6513 31.2599V31.2599Z" fill="#7484EC"/>
<path d="M13.3014 28.0522C13.2826 28.0522 13.2638 28.05 13.2455 28.0459L8.01445 26.8641C7.94896 26.8493 7.89203 26.8091 7.85616 26.7524C7.8203 26.6956 7.80845 26.6269 7.82322 26.5613C7.83799 26.4958 7.87818 26.4388 7.93493 26.403C7.99168 26.3671 8.06036 26.3552 8.12585 26.37L13.3569 27.5518C13.4176 27.5655 13.4712 27.6012 13.5073 27.6519C13.5434 27.7026 13.5596 27.7649 13.5527 27.8268C13.5458 27.8887 13.5164 27.9459 13.47 27.9875C13.4237 28.0291 13.3636 28.0521 13.3014 28.0522Z" fill="#7484EC"/>
</svg>
